<svg width="154" height="81" viewBox="0 0 154 81" fill="none" xmlns="http://www.w3.org/2000/svg">
<path d="M76.6299 45.4319L72.61 43.0951L72.3228 43.5554C71.4255 44.9716 70.1693 45.6798 68.6259 45.6798C65.9699 45.6798 63.9958 43.697 63.9958 41.1123C63.9958 38.4922 66.0058 36.5448 68.6259 36.5448C70.2052 36.5448 71.3537 37.2176 72.3228 38.6692L72.61 39.1295L76.6299 36.7927L76.271 36.297C74.3328 33.5353 71.8562 32.2252 68.59 32.2252C62.4525 32.2252 59.1504 36.8281 59.1504 41.1477C59.1504 45.4673 62.4525 50.0702 68.59 50.0702C71.7127 50.0702 74.6558 48.5123 76.271 45.963L76.6299 45.4319Z" fill="#C01818"/>
<path d="M76.4146 49.9996H81.942L83.593 45.9632H91.8841L93.5352 49.9996H99.0985L89.1922 26.3833H84.2391L85.5671 29.5345L76.4146 49.9996ZM87.7924 35.6953L90.0177 41.2541H85.4953L87.7924 35.6953Z" fill="#C01818"/>
<path d="M101.396 50.0349H106.241V39.4129H109.4V34.9517H106.241V32.8627C106.241 31.9421 106.851 30.9861 108 30.9861C108.61 30.9861 109.005 31.0923 109.364 31.234L109.902 31.4464L111.912 27.0914L111.338 26.8435C110.44 26.4895 109.184 26.3478 108.287 26.3478C106.097 26.3478 104.267 27.056 103.047 28.4014C101.97 29.5698 101.36 31.1986 101.36 33.0043V34.9163H99.2061V39.3775H101.36L101.396 50.0349Z" fill="#C01818"/>
<path d="M36.287 26.2415V49.9994H41.5632V36.4032L46.6958 40.1563L51.7925 36.4032V49.9994H57.0686L57.1045 26.2415L46.6958 33.9956L36.287 26.2415Z" fill="#C01818"/>
<path d="M120.383 32.2606C114.281 32.2606 110.979 36.8281 110.979 41.1477C110.979 45.4673 114.281 50.0348 120.383 50.0348C123.182 49.9994 125.802 48.7601 127.848 46.4587L123.9 44.3343C122.895 45.3611 121.639 45.8922 120.275 45.8922C118.265 45.8922 116.506 44.5822 116.04 42.8472H129.248V41.6788C129.248 35.1994 124.044 32.2606 120.383 32.2606ZM116.147 38.9525C116.793 37.3238 118.157 36.4032 119.916 36.4032C121.711 36.4032 123.11 37.3238 123.828 38.9879L116.147 38.9525Z" fill="#C01818"/>
<path d="M140.231 32.2606C134.129 32.2606 130.827 36.8281 130.827 41.1477C130.827 45.4673 134.129 50.0348 140.231 50.0348C143.031 49.9994 145.651 48.7601 147.697 46.4587L143.748 44.3343C142.743 45.3611 141.487 45.8922 140.123 45.8922C138.113 45.8922 136.355 44.5822 135.888 42.8472H149.096V41.6788C149.096 35.1994 143.928 32.2606 140.231 32.2606ZM135.996 38.9525C136.642 37.3238 138.006 36.3678 139.764 36.4032C141.559 36.4032 142.959 37.3238 143.677 38.9879L135.996 38.9525Z" fill="#C01818"/>
<path d="M148.486 31.4817H150.532V31.8712H149.706V33.9956H149.276V31.8712H148.486V31.4817Z" fill="#C01818"/>
<path d="M150.819 31.4817H151.429L152.147 33.4291L152.829 31.4817H153.439V33.9956H153.009V32.0482L152.291 33.9956H151.932L151.214 32.0482V33.9956H150.783V31.4817H150.819Z" fill="#C01818"/>
<path d="M-3.05176e-05 26.2061L13.0647 32.1544V37.9611L5.38381 34.4558V46.4941L13.0647 49.9994L13.0423 55.8061L-3.05176e-05 49.8577V26.2061Z" fill="#C01818"/>
<path d="M26.1071 26.2061L13.0423 32.1544V37.9611L20.7233 34.4558V46.4941L13.0423 49.9994V55.8061L26.1071 49.8577V26.2061Z" fill="#75160D"/>
</svg>


