<svg width="112" height="22" viewBox="0 0 112 22" fill="none" xmlns="http://www.w3.org/2000/svg">
                <path
                    d="M54.5313 14.2051L51.7002 12.5472L51.498 12.8738C50.8661 13.8786 49.9814 14.381 48.8945 14.381C47.024 14.381 45.6338 12.9743 45.6338 11.1405C45.6338 9.28168 47.0493 7.9001 48.8945 7.9001C50.0067 7.9001 50.8156 8.37738 51.498 9.40728L51.7002 9.73383L54.5313 8.07594L54.2785 7.72427C52.9135 5.76494 51.1694 4.83551 48.8692 4.83551C44.5469 4.83551 42.2214 8.10106 42.2214 11.1657C42.2214 14.2302 44.5469 17.4958 48.8692 17.4958C51.0683 17.4958 53.141 16.3905 54.2785 14.5819L54.5313 14.2051Z"
                    fill="#C01818" />
                <path
                    d="M54.3796 17.4457H58.2722L59.4349 14.5821H65.2739L66.4366 17.4457H70.3546L63.3781 0.690964H59.8899L60.8252 2.92661L54.3796 17.4457ZM62.3923 7.29742L63.9595 11.2412H60.7746L62.3923 7.29742Z"
                    fill="#C01818" />
                <path
                    d="M71.9722 17.4702H75.3846V9.93433H77.609V6.76926H75.3846V5.2872C75.3846 4.63409 75.8143 3.95586 76.6232 3.95586C77.0529 3.95586 77.3309 4.03122 77.5837 4.1317L77.9629 4.28242L79.3784 1.1927L78.9739 1.01687C78.342 0.76567 77.4573 0.665192 76.8254 0.665192C75.2835 0.665192 73.9944 1.16758 73.135 2.12213C72.3767 2.95108 71.947 4.10658 71.947 5.38768V6.74414H70.4304V9.90921H71.947L71.9722 17.4702Z"
                    fill="#C01818" />
                <path
                    d="M26.1201 0.589981V17.4452H29.8358V7.79931L33.4503 10.462L37.0396 7.79931V17.4452H40.7553L40.7806 0.589981L33.4503 6.09118L26.1201 0.589981Z"
                    fill="#C01818" />
                <path
                    d="M85.3437 4.86069C81.0467 4.86069 78.7212 8.10112 78.7212 11.1657C78.7212 14.2303 81.0467 17.4707 85.3437 17.4707C87.3153 17.4456 89.1605 16.5664 90.6013 14.9337L87.8209 13.4265C87.1131 14.1549 86.2284 14.5317 85.2679 14.5317C83.8524 14.5317 82.6138 13.6023 82.2852 12.3715H91.5871V11.5425C91.5871 6.94562 87.922 4.86069 85.3437 4.86069ZM82.3611 9.60829C82.816 8.45279 83.7766 7.79968 85.0151 7.79968C86.279 7.79968 87.2648 8.45279 87.7703 9.63341L82.3611 9.60829Z"
                    fill="#C01818" />
                <path
                    d="M99.3218 4.86069C95.0248 4.86069 92.6993 8.10112 92.6993 11.1657C92.6993 14.2303 95.0248 17.4707 99.3218 17.4707C101.293 17.4456 103.139 16.5664 104.579 14.9337L101.799 13.4265C101.091 14.1549 100.207 14.5317 99.246 14.5317C97.8305 14.5317 96.5919 13.6023 96.2633 12.3715H105.565V11.5425C105.565 6.94562 101.925 4.86069 99.3218 4.86069ZM96.3391 9.60829C96.7941 8.45279 97.7547 7.77456 98.9932 7.79968C100.257 7.79968 101.243 8.45279 101.748 9.63341L96.3391 9.60829Z"
                    fill="#C01818" />
                <path fill-rule="evenodd" clip-rule="evenodd"
                    d="M9.56518 4.78168L0.565186 0.565216V17.3451L9.55745 21.5652L18.5652 17.3451V0.565216L9.56518 4.78168ZM9.56518 8.90129L9.57292 8.90493V8.89766L14.8532 6.41809V14.9588L9.56518 17.442L4.27716 14.9588V6.41809L9.55744 8.89766V8.90493L9.56518 8.90129Z"
                    fill="#C01818" />
                <path d="M108.234 5V5.48567H107.422V8H106.812V5.48567H106V5H108.234Z" fill="#C01818" />
                <path
                    d="M112 5V8H111.389V6.04871L110.573 8H110.111L109.29 6.04871V8H108.68V5H109.373L110.342 7.23066L111.311 5H112Z"
                    fill="#C01818" />
            </svg>